<svg width="100" height="22" viewBox="0 0 100 22" fill="none" xmlns="http://www.w3.org/2000/svg">
<path d="M0 5.73085C0 3.88621 0 2.96389 0.358991 2.25933C0.674769 1.63958 1.17864 1.13571 1.79839 0.819929C2.50295 0.460938 3.42527 0.460938 5.26991 0.460938H10.5398C11.1515 0.460938 11.4573 0.460938 11.7157 0.474479C16.7661 0.739159 20.8014 4.77449 21.0661 9.82489C21.0797 10.0833 21.0797 10.3891 21.0797 11.0008V11.0008C21.0797 11.6124 21.0797 11.9182 21.0661 12.1766C20.8014 17.227 16.7661 21.2624 11.7157 21.5271C11.4573 21.5406 11.1515 21.5406 10.5398 21.5406V21.5406C9.92817 21.5406 9.62234 21.5406 9.36395 21.5271C4.31356 21.2624 0.278222 17.227 0.0135417 12.1766C0 11.9182 0 11.6124 0 11.0008V5.73085Z" fill="#3B82F6"/>
<path d="M96.7572 18.2928V8.22391H99.9634V18.2928H96.7572ZM98.3513 7.07111C97.9009 7.07111 97.5137 6.92101 97.1895 6.6208C96.8652 6.3206 96.7031 5.95735 96.7031 5.53105C96.7031 5.10476 96.8652 4.74451 97.1895 4.45031C97.5137 4.1501 97.9009 4 98.3513 4C98.8076 4 99.1948 4.1501 99.5131 4.45031C99.8373 4.74451 99.9994 5.10476 99.9994 5.53105C99.9994 5.95735 99.8373 6.3206 99.5131 6.6208C99.1948 6.92101 98.8076 7.07111 98.3513 7.07111Z" fill="white"/>
<path d="M91.3361 18.4818C90.2734 18.4818 89.3638 18.2627 88.6072 17.8244C87.8507 17.3861 87.2713 16.7796 86.869 16.0051C86.4668 15.2246 86.2656 14.3209 86.2656 13.2942C86.2656 12.2615 86.4668 11.3579 86.869 10.5834C87.2713 9.80283 87.8507 9.19341 88.6072 8.75511C89.3698 8.31681 90.2794 8.09766 91.3361 8.09766C92.2668 8.09766 93.0773 8.26877 93.7678 8.61101C94.4583 8.94724 94.9986 9.42157 95.3889 10.034C95.7792 10.6404 95.9863 11.3579 96.0103 12.1865H93.0203C92.9782 11.8442 92.8852 11.55 92.7411 11.3039C92.603 11.0577 92.4169 10.8686 92.1827 10.7365C91.9545 10.6044 91.6874 10.5383 91.3811 10.5383C91.0089 10.5383 90.6817 10.6434 90.3995 10.8536C90.1233 11.0577 89.9071 11.3639 89.751 11.7722C89.6009 12.1745 89.5259 12.6728 89.5259 13.2672C89.5259 13.8616 89.6009 14.366 89.751 14.7803C89.9071 15.1885 90.1233 15.5008 90.3995 15.7169C90.6757 15.9331 91.0029 16.0411 91.3811 16.0411C91.8194 16.0411 92.1857 15.894 92.4799 15.5998C92.7741 15.2996 92.9542 14.8823 93.0203 14.348H96.0103C95.9803 15.1765 95.7732 15.903 95.3889 16.5275C95.0046 17.1459 94.4703 17.6262 93.7858 17.9685C93.1013 18.3107 92.2848 18.4818 91.3361 18.4818Z" fill="white"/>
<path d="M79.8625 15.6535L79.8895 11.8258H80.3308L83.1497 8.22335H86.7882L82.5823 13.3929H81.7357L79.8625 15.6535ZM76.9805 18.2923V4.87305H80.1867V18.2923H76.9805ZM83.2308 18.2923L80.601 14.1134L82.7084 11.8348L86.9233 18.2923H83.2308Z" fill="white"/>
<path d="M72.6302 18.2928V8.22391H75.8364V18.2928H72.6302ZM74.2243 7.07111C73.774 7.07111 73.3867 6.92101 73.0625 6.6208C72.7383 6.3206 72.5762 5.95735 72.5762 5.53105C72.5762 5.10476 72.7383 4.74451 73.0625 4.45031C73.3867 4.1501 73.774 4 74.2243 4C74.6806 4 75.0679 4.1501 75.3861 4.45031C75.7103 4.74451 75.8724 5.10476 75.8724 5.53105C75.8724 5.95735 75.7103 6.3206 75.3861 6.6208C75.0679 6.92101 74.6806 7.07111 74.2243 7.07111Z" fill="white"/>
<path d="M65.7383 18.2927V8.22374H68.8454V10.07H68.9535C69.1336 9.39755 69.4308 8.90221 69.8451 8.58399C70.2654 8.25977 70.7487 8.09766 71.2951 8.09766C71.4452 8.09766 71.5983 8.10666 71.7544 8.12467C71.9165 8.14269 72.0636 8.17271 72.1957 8.21474V10.9886C72.0396 10.9346 71.8385 10.8956 71.5923 10.8716C71.3461 10.8415 71.127 10.8265 70.9349 10.8265C70.5566 10.8265 70.2144 10.9106 69.9081 11.0787C69.6079 11.2468 69.3708 11.481 69.1967 11.7812C69.0285 12.0814 68.9445 12.4296 68.9445 12.8259V18.2927H65.7383Z" fill="white"/>
<path d="M58.578 18.4728C57.9355 18.4728 57.3621 18.3647 56.8578 18.1486C56.3594 17.9264 55.9692 17.5962 55.687 17.1579C55.4048 16.7196 55.2637 16.1672 55.2637 15.5008C55.2637 14.9424 55.3597 14.471 55.5519 14.0868C55.75 13.7025 56.0202 13.3903 56.3624 13.1501C56.7107 12.91 57.1099 12.7268 57.5603 12.6008C58.0106 12.4687 58.4909 12.3846 59.0012 12.3486C59.5716 12.2945 60.031 12.2405 60.3792 12.1865C60.7274 12.1324 60.9796 12.0484 61.1357 11.9343C61.2978 11.8202 61.3789 11.6611 61.3789 11.457V11.4119C61.3789 11.0817 61.2648 10.8235 61.0366 10.6374C60.8085 10.4513 60.4963 10.3582 60.1 10.3582C59.6737 10.3582 59.3315 10.4513 59.0733 10.6374C58.8211 10.8235 58.659 11.0757 58.587 11.3939L55.6419 11.2949C55.726 10.6824 55.9481 10.1361 56.3084 9.65573C56.6746 9.16939 57.176 8.78813 57.8124 8.51194C58.4549 8.23575 59.2294 8.09766 60.136 8.09766C60.7725 8.09766 61.3609 8.17271 61.9012 8.32281C62.4416 8.47291 62.9129 8.69207 63.3152 8.98026C63.7175 9.26846 64.0297 9.6197 64.2519 10.034C64.474 10.4483 64.5851 10.9196 64.5851 11.448V18.2927H61.568V16.8787H61.496C61.3098 17.2269 61.0787 17.5181 60.8025 17.7523C60.5263 17.9865 60.2021 18.1666 59.8298 18.2927C59.4636 18.4128 59.0463 18.4728 58.578 18.4728ZM59.5596 16.3653C59.9019 16.3653 60.2111 16.2963 60.4873 16.1582C60.7695 16.0141 60.9916 15.819 61.1537 15.5728C61.3218 15.3266 61.4059 15.0384 61.4059 14.7082V13.7626C61.3158 13.8106 61.2048 13.8556 61.0727 13.8976C60.9466 13.9337 60.8055 13.9697 60.6494 14.0057C60.4933 14.0417 60.3342 14.0718 60.1721 14.0958C60.0159 14.1198 59.8658 14.1438 59.7217 14.1678C59.4155 14.2099 59.1544 14.2849 58.9382 14.393C58.7281 14.4951 58.5689 14.6241 58.4609 14.7803C58.3528 14.9364 58.2988 15.1255 58.2988 15.3476C58.2988 15.6779 58.4158 15.93 58.65 16.1042C58.8842 16.2783 59.1874 16.3653 59.5596 16.3653Z" fill="white"/>
<path d="M48.4836 18.4364C47.7451 18.4364 47.0696 18.2443 46.4572 17.86C45.8507 17.4757 45.3674 16.8993 45.0072 16.1308C44.6469 15.3623 44.4668 14.4076 44.4668 13.2668C44.4668 12.084 44.6529 11.1113 45.0252 10.3488C45.4034 9.58629 45.8958 9.0219 46.5022 8.65565C47.1086 8.28339 47.7631 8.09727 48.4655 8.09727C48.9939 8.09727 49.4442 8.18733 49.8165 8.36745C50.1947 8.54758 50.507 8.78174 50.7531 9.06994C50.9993 9.35213 51.1854 9.64633 51.3115 9.95254H51.3746V4.87305H54.5808V18.2923H51.4196V16.6532H51.3115C51.1734 16.9654 50.9813 17.2566 50.7351 17.5268C50.4889 17.7969 50.1797 18.0161 49.8075 18.1842C49.4352 18.3523 48.9939 18.4364 48.4836 18.4364ZM49.5913 15.9417C49.9816 15.9417 50.3148 15.8306 50.591 15.6084C50.8672 15.3863 51.0803 15.0771 51.2305 14.6808C51.3806 14.2785 51.4556 13.8072 51.4556 13.2668C51.4556 12.7144 51.3806 12.2401 51.2305 11.8438C51.0864 11.4416 50.8732 11.1324 50.591 10.9162C50.3148 10.7001 49.9816 10.592 49.5913 10.592C49.2011 10.592 48.8678 10.7031 48.5916 10.9252C48.3154 11.1474 48.1053 11.4596 47.9612 11.8619C47.8231 12.2581 47.7541 12.7265 47.7541 13.2668C47.7541 13.8012 47.8261 14.2695 47.9702 14.6718C48.1143 15.0741 48.3214 15.3863 48.5916 15.6084C48.8678 15.8306 49.2011 15.9417 49.5913 15.9417Z" fill="white"/>
<path d="M39.3502 18.4818C38.2935 18.4818 37.3839 18.2747 36.6213 17.8604C35.8588 17.4401 35.2734 16.8427 34.8651 16.0681C34.4629 15.2936 34.2617 14.369 34.2617 13.2942C34.2617 12.2555 34.4659 11.3489 34.8741 10.5744C35.2824 9.79382 35.8588 9.18741 36.6033 8.75511C37.3478 8.31681 38.2244 8.09766 39.2331 8.09766C39.9476 8.09766 40.6021 8.21173 41.1965 8.43989C41.7969 8.66204 42.3133 8.99227 42.7456 9.43057C43.1839 9.86287 43.5201 10.3972 43.7543 11.0337C43.9944 11.6701 44.1145 12.4056 44.1145 13.2402V14.0327H35.3695V12.1865H42.5925L41.0974 12.6188C41.0974 12.1565 41.0284 11.7632 40.8903 11.439C40.7522 11.1087 40.548 10.8536 40.2779 10.6734C40.0077 10.4933 39.6714 10.4032 39.2692 10.4032C38.8669 10.4032 38.5277 10.4933 38.2515 10.6734C37.9753 10.8536 37.7651 11.1057 37.621 11.43C37.4769 11.7482 37.4049 12.1264 37.4049 12.5647V13.8886C37.4049 14.357 37.4859 14.7622 37.648 15.1045C37.8162 15.4467 38.0503 15.7109 38.3505 15.897C38.6567 16.0771 39.008 16.1672 39.4043 16.1672C39.6804 16.1672 39.9326 16.1282 40.1608 16.0501C40.3889 15.9721 40.5841 15.858 40.7462 15.7079C40.9083 15.5518 41.0314 15.3657 41.1154 15.1495L44.0515 15.2306C43.9314 15.891 43.6672 16.4644 43.2589 16.9508C42.8506 17.4371 42.3163 17.8153 41.6558 18.0855C40.9954 18.3497 40.2268 18.4818 39.3502 18.4818Z" fill="white"/>
<path d="M24.0391 7.51186V4.87305H35.3689V7.51186H31.2981V18.2923H28.1099V7.51186H24.0391Z" fill="white"/>
<path d="M23.8181 9.43555V11.6588H16.9219V9.43555H23.8181Z" fill="#1E40AF"/>
<path d="M10.7042 17.1552C9.55143 17.1552 8.55646 16.9151 7.71931 16.4347C6.88217 15.9475 6.23715 15.2614 5.78427 14.3762C5.33825 13.491 5.11523 12.448 5.11523 11.2472C5.11523 10.0601 5.33825 9.02049 5.78427 8.12845C6.23029 7.22954 6.85815 6.52963 7.66785 6.02872C8.47755 5.5278 9.43135 5.27734 10.5292 5.27734C11.236 5.27734 11.9051 5.39056 12.5363 5.61701C13.1745 5.84345 13.7372 6.1934 14.2244 6.66687C14.7184 7.14034 15.1061 7.74418 15.3874 8.4784C15.6688 9.20576 15.8095 10.0738 15.8095 11.0825V11.9265H6.38125V10.1047H14.4611L13.1951 10.6399C13.1951 9.98802 13.0956 9.42191 12.8966 8.94158C12.6976 8.45439 12.4025 8.07355 12.0114 7.79908C11.6203 7.52461 11.1331 7.38737 10.5498 7.38737C9.96657 7.38737 9.46909 7.52461 9.05738 7.79908C8.64566 8.07355 8.33345 8.4441 8.12073 8.9107C7.90801 9.37045 7.80166 9.88509 7.80166 10.4546V11.7206C7.80166 12.4205 7.92174 13.021 8.1619 13.5219C8.40893 14.0159 8.75202 14.3933 9.19118 14.6541C9.6372 14.9148 10.1553 15.0452 10.7454 15.0452C11.1297 15.0452 11.4796 14.9903 11.7953 14.8805C12.1178 14.7707 12.3922 14.6061 12.6187 14.3865C12.852 14.16 13.0304 13.8821 13.1539 13.5528L15.6859 13.8512C15.5213 14.5168 15.2159 15.1001 14.7699 15.601C14.3307 16.0951 13.7646 16.4793 13.0716 16.7538C12.3854 17.0214 11.5963 17.1552 10.7042 17.1552Z" fill="#1E40AF"/>
<circle cx="21.0792" cy="1.77842" r="1.31748" fill="#3B82F6"/>
</svg>
