<svg width="58" height="58" viewBox="0 0 58 58" fill="none" xmlns="http://www.w3.org/2000/svg">
<g filter="url(#filter0_d_2169_3510)">
<rect x="4" y="4" width="50" height="50" rx="8" fill="#3B82F6" fill-opacity="0.5"/>
<path fill-rule="evenodd" clip-rule="evenodd" d="M10.6642 13.3274C10 14.631 10 16.3375 10 19.7506V29.5011C10 30.6328 10 31.1987 10.0251 31.6767C10.5148 41.0211 17.9811 48.4874 27.3255 48.9772C27.8036 49.0022 28.3694 49.0022 29.5011 49.0022C30.6328 49.0022 31.1987 49.0022 31.6767 48.9772C41.0211 48.4874 48.4874 41.0211 48.9772 31.6767C48.991 31.4118 48.9972 31.12 49 30.7198H41.3089V26.6063H48.9254C48.1011 17.6006 40.7801 10.5021 31.6767 10.0251C31.1987 10 30.6328 10 29.5011 10H19.7506C16.3375 10 14.631 10 13.3274 10.6642C12.1808 11.2485 11.2485 12.1808 10.6642 13.3274ZM29.8048 40.8898C27.6719 40.8898 25.831 40.4454 24.2821 39.5567C22.7332 38.6553 21.5397 37.3857 20.7018 35.7479C19.8766 34.1101 19.4639 32.1803 19.4639 29.9585C19.4639 27.7621 19.8766 25.8386 20.7018 24.1881C21.527 22.5249 22.6887 21.2299 24.1869 20.3031C25.685 19.3763 27.4497 18.9129 29.4811 18.9129C30.7888 18.9129 32.0267 19.1224 33.1947 19.5414C34.3754 19.9603 35.4165 20.6078 36.3179 21.4839C37.232 22.3599 37.9494 23.4771 38.4699 24.8356C38.9904 26.1814 39.2507 27.7875 39.2507 29.6538V31.2154H24.441C24.4808 32.3486 24.7008 33.3326 25.101 34.1672C25.558 35.0813 26.1928 35.7796 27.0054 36.2621C27.8306 36.7445 28.7892 36.9857 29.881 36.9857C30.592 36.9857 31.2395 36.8842 31.8235 36.681C32.4202 36.4779 32.9281 36.1732 33.347 35.7669C33.7787 35.3479 34.1088 34.8337 34.3373 34.2243L39.0222 34.7766C38.7175 36.0081 38.1525 37.0873 37.3272 38.0141C36.5147 38.9282 35.4673 39.6392 34.185 40.147C32.9154 40.6422 31.4553 40.8898 29.8048 40.8898ZM25.0248 25.6355C24.7135 26.3083 24.5253 27.0447 24.4602 27.8446H34.3689C34.2939 27.046 34.1247 26.3286 33.8612 25.6926C33.493 24.7912 32.9471 24.0866 32.2234 23.5787C31.4998 23.0709 30.5984 22.817 29.5192 22.817C28.44 22.817 27.5196 23.0709 26.7578 23.5787C25.996 24.0866 25.4184 24.7721 25.0248 25.6355Z" fill="white"/>
</g>
<defs>
<filter id="filter0_d_2169_3510" x="0" y="0" width="58" height="58" filterUnits="userSpaceOnUse" color-interpolation-filters="sRGB">
<feFlood flood-opacity="0" result="BackgroundImageFix"/>
<feColorMatrix in="SourceAlpha" type="matrix" values="0 0 0 0 0 0 0 0 0 0 0 0 0 0 0 0 0 0 127 0" result="hardAlpha"/>
<feMorphology radius="4" operator="dilate" in="SourceAlpha" result="effect1_dropShadow_2169_3510"/>
<feOffset/>
<feColorMatrix type="matrix" values="0 0 0 0 1 0 0 0 0 1 0 0 0 0 1 0 0 0 1 0"/>
<feBlend mode="normal" in2="BackgroundImageFix" result="effect1_dropShadow_2169_3510"/>
<feBlend mode="normal" in="SourceGraphic" in2="effect1_dropShadow_2169_3510" result="shape"/>
</filter>
</defs>
</svg>
